name GIL03_free4.mot
datacolumns 153
datarows 4
range 0.59166670 0.61666667
endheader

                time	           pelvis_tx	           pelvis_ty	           pelvis_tz	         pelvis_tilt	         pelvis_list	     pelvis_rotation	       hip_flexion_r	     hip_adduction_r	      hip_rotation_r	        knee_angle_r	       ankle_angle_r	    subtalar_angle_r	         mtp_angle_r	       hip_flexion_l	     hip_adduction_l	      hip_rotation_l	        knee_angle_l	       ankle_angle_l	    subtalar_angle_l	         mtp_angle_l	    lumbar_extension	      lumbar_bending	     lumbar_rotation	     ground_force_vx	     ground_force_vy	     ground_force_vz	     ground_force_px	     ground_force_py	     ground_force_pz	     ground_force_vx	     ground_force_vy	     ground_force_vz	     ground_force_px	     ground_force_py	     ground_force_pz	     ground_torque_x	     ground_torque_y	     ground_torque_z	     ground_torque_x	     ground_torque_y	     ground_torque_z	    ground_marker_px	    ground_marker_py	    ground_marker_pz	    ground_marker_px	    ground_marker_py	    ground_marker_pz	    ground_marker_px	    ground_marker_py	    ground_marker_pz	    ground_marker_px	    ground_marker_py	    ground_marker_pz	    ground_marker_px	    ground_marker_py	    ground_marker_pz	    ground_marker_px	    ground_marker_py	    ground_marker_pz	    ground_marker_px	    ground_marker_py	    ground_marker_pz	    ground_marker_px	    ground_marker_py	    ground_marker_pz	    ground_marker_px	    ground_marker_py	    ground_marker_pz	    ground_marker_px	    ground_marker_py	    ground_marker_pz	    ground_marker_px	    ground_marker_py	    ground_marker_pz	    ground_marker_px	    ground_marker_py	    ground_marker_pz	    ground_marker_px	    ground_marker_py	    ground_marker_pz	    ground_marker_px	    ground_marker_py	    ground_marker_pz	    ground_marker_px	    ground_marker_py	    ground_marker_pz	    ground_marker_px	    ground_marker_py	    ground_marker_pz	    ground_marker_px	    ground_marker_py	    ground_marker_pz	    ground_marker_px	    ground_marker_py	    ground_marker_pz	    ground_marker_px	    ground_marker_py	    ground_marker_pz	    ground_marker_px	    ground_marker_py	    ground_marker_pz	    ground_marker_px	    ground_marker_py	    ground_marker_pz	    ground_marker_px	    ground_marker_py	    ground_marker_pz	    ground_marker_px	    ground_marker_py	    ground_marker_pz	    ground_marker_px	    ground_marker_py	    ground_marker_pz	    ground_marker_px	    ground_marker_py	    ground_marker_pz	    ground_marker_px	    ground_marker_py	    ground_marker_pz	    ground_marker_px	    ground_marker_py	    ground_marker_pz	    ground_marker_px	    ground_marker_py	    ground_marker_pz	    ground_marker_px	    ground_marker_py	    ground_marker_pz	    ground_marker_px	    ground_marker_py	    ground_marker_pz	    ground_marker_px	    ground_marker_py	    ground_marker_pz	    ground_marker_px	    ground_marker_py	    ground_marker_pz	    ground_marker_px	    ground_marker_py	    ground_marker_pz	    ground_marker_px	    ground_marker_py	    ground_marker_pz	    ground_marker_px	    ground_marker_py	    ground_marker_pz	    ground_marker_px	    ground_marker_py	    ground_marker_pz	    ground_marker_px	    ground_marker_py	    ground_marker_pz	
          0.59166670	          0.60931683	          0.87387091	         -0.23041186	          3.69177914	          0.39363974	         -3.31627750	        -16.43858719	         -1.49774289	          1.69922638	        -29.78813744	          5.41854095	          0.00000000	          0.00000000	         23.70882416	         -0.25726625	          8.29464436	        -22.53699303	         -3.26210809	          0.00000000	          0.00000000	        -20.19326401	         -3.09435320	         14.06452751	         46.58642937	        130.22033100	          3.79484058	          0.29830603	          0.00000000	         -0.15888852	        -55.77673157	        317.03842042	          2.30959291	          0.75929517	          0.00000000	         -0.29382083	          0.00000000	          0.13922171	          0.00000000	          0.00000000	          0.63281659	          0.00000000	          0.55456328	          0.81276333	         -0.23877022	          0.55390340	          0.79270750	         -0.17489409	          0.55087787	          0.79084307	         -0.29231215	          0.46994448	          0.42391291	         -0.16930677	          0.71892399	          0.46611008	         -0.28364351	          0.20101829	          0.13122751	         -0.17485148	          0.75289994	          0.06516347	         -0.29017857	          0.60931683	          0.87387091	         -0.23041186	          0.60350972	          0.87402773	         -0.13085724	          0.61512387	          0.87371409	         -0.32996646	          0.44898102	          0.89843512	         -0.22087821	          0.45250112	          0.89586926	         -0.27576715	          0.47434792	          0.42374104	         -0.11448359	          0.73674810	          0.47397518	         -0.33454236	          0.47542858	          0.42379230	         -0.22756696	          0.72306579	          0.44701895	         -0.24331155	          0.19167300	          0.13912264	         -0.13834693	          0.76183182	          0.06653033	         -0.32760319	          0.22266035	          0.13313992	         -0.20318910	          0.77291834	          0.07763606	         -0.26246652	          0.51179779	          1.31316936	         -0.21545638	          0.61704934	          1.23482227	         -0.18554315	          0.59629786	          1.23651063	         -0.29207259	          0.59151739	          1.24741185	         -0.24081476	          0.63770330	          1.07836771	         -0.25155446	          0.65034992	          0.57134616	         -0.16117784	          0.75758982	          0.66989434	         -0.24563272	          0.57986081	          0.63277322	         -0.12336990	          0.69268584	          0.68109828	         -0.32183114	          0.55570167	          0.55096096	         -0.12440434	          0.73581642	          0.60448241	         -0.31261036	          0.26653901	          0.23470342	         -0.06775359	          0.72589153	          0.17996970	         -0.39290923	          0.27145872	          0.23694567	         -0.10914129	          0.73539048	          0.18574694	         -0.35106614	          0.27458179	          0.04721766	         -0.14325663	          0.88144481	          0.04181939	         -0.29662630	
          0.60000002	          0.62137306	          0.87490714	         -0.23155971	          3.90618038	          0.69825739	         -3.36978340	        -15.63745880	         -2.21700454	          1.11325932	        -32.41418076	          3.18855977	          0.00000000	          0.00000000	         23.22146988	          0.26024488	          8.35451794	        -23.73609161	         -2.18281174	          0.00000000	          0.00000000	        -20.28152084	         -3.45252943	         13.86847782	         30.70982859	         79.29332806	          3.76168663	          0.30294080	          0.00000000	         -0.15905582	        -63.40000361	        355.36498548	          7.67630329	          0.76491223	          0.00000000	         -0.29400415	          0.00000000	          0.04137517	          0.00000000	          0.00000000	          0.51439514	          0.00000000	          0.56686342	          0.81342548	         -0.24044868	          0.56617057	          0.79325384	         -0.17655253	          0.56334859	          0.79198080	         -0.29398355	          0.48837614	          0.42261133	         -0.16793993	          0.72948265	          0.46669620	         -0.28357828	          0.21167722	          0.13821433	         -0.17270385	          0.75308985	          0.06510507	         -0.29036957	          0.62137306	          0.87490714	         -0.23155971	          0.61539441	          0.87453109	         -0.13194063	          0.62735176	          0.87528324	         -0.33117878	          0.46100909	          0.89873809	         -0.22183779	          0.46454999	          0.89662033	         -0.27675340	          0.49228236	          0.42306620	         -0.11308070	          0.74768990	          0.47437048	         -0.33437055	          0.49414873	          0.42163834	         -0.22555019	          0.73340213	          0.44768879	         -0.24374752	          0.20250762	          0.14652507	         -0.13624701	          0.76324058	          0.06632946	         -0.32748708	          0.23379873	          0.13938920	         -0.20054992	          0.77395272	          0.07721468	         -0.26220578	          0.52276033	          1.31411946	         -0.21673444	          0.62824702	          1.23591399	         -0.18648109	          0.60786676	          1.23737502	         -0.29292610	          0.60276586	          1.24840736	         -0.24180265	          0.64947563	          1.07939374	         -0.25208396	          0.66667962	          0.57266623	         -0.15964057	          0.76919532	          0.67052239	         -0.24559623	          0.59513807	          0.63309628	         -0.12296622	          0.70534050	          0.68223661	         -0.32178584	          0.57205772	          0.55096430	         -0.12326266	          0.74785525	          0.60524565	         -0.31245893	          0.27985030	          0.24007533	         -0.06598214	          0.73239148	          0.18039341	         -0.39372590	          0.28518927	          0.24224584	         -0.10711637	          0.74127316	          0.18585035	         -0.35163912	          0.27951592	          0.04930099	         -0.14305761	          0.88256836	          0.04061274	         -0.29627389	
          0.60833335	          0.63322306	          0.87599528	         -0.23256874	          4.07756519	          0.98574424	         -3.48828316	        -14.60591221	         -2.86702418	          0.47797680	        -35.18393326	          1.15658736	          0.00000000	          0.00000000	         22.71185303	          0.67260802	          8.08557606	        -24.77855301	         -1.05896246	          0.00000000	          0.00000000	        -20.31044197	         -3.81727481	         13.78636074	         15.74491030	         41.65363678	          2.41275087	          0.31029922	          0.00000000	         -0.15876921	        -68.88199639	        392.13509394	         12.30982370	          0.76913422	          0.00000000	         -0.29420129	          0.00000000	         -0.01956570	          0.00000000	          0.00000000	          0.59329993	          0.00000000	          0.57890916	          0.81420898	         -0.24204673	          0.57811260	          0.79392242	         -0.17809625	          0.57561612	          0.79319113	         -0.29553929	          0.50774008	          0.42134595	         -0.16671953	          0.73948276	          0.46715146	         -0.28377783	          0.22371699	          0.14525037	         -0.17062458	          0.75329930	          0.06516540	         -0.29047501	          0.63322306	          0.87599528	         -0.23256874	          0.62696779	          0.87513417	         -0.13289256	          0.63947839	          0.87685633	         -0.33224490	          0.47283310	          0.89919806	         -0.22284536	          0.47646767	          0.89754331	         -0.27779490	          0.51099789	          0.42240679	         -0.11182634	          0.75782835	          0.47453991	         -0.33456269	          0.51495361	          0.41936979	         -0.22394693	          0.74173117	          0.44748324	         -0.24468747	          0.21484973	          0.15385652	         -0.13416152	          0.76423395	          0.06615601	         -0.32737625	          0.24626799	          0.14525957	         -0.19803773	          0.77456409	          0.07703525	         -0.26203632	          0.53368992	          1.31510746	         -0.21787529	          0.63934028	          1.23709667	         -0.18739468	          0.61922288	          1.23832214	         -0.29382083	          0.61394614	          1.24946976	         -0.24273866	          0.66105598	          1.08050215	         -0.25262856	          0.68329656	          0.57434779	         -0.15777516	          0.78074425	          0.67089558	         -0.24629763	          0.61048031	          0.63357359	         -0.12192348	          0.71738076	          0.68250805	         -0.32276592	          0.58920425	          0.55104172	         -0.12187198	          0.75871038	          0.60469192	         -0.31346071	          0.29467097	          0.24506551	         -0.06419667	          0.73756194	          0.18068513	         -0.39429781	          0.30054209	          0.24708702	         -0.10502829	          0.74569046	          0.18623163	         -0.35209912	          0.28597346	          0.05204134	         -0.14269485	          0.88339341	          0.03980811	         -0.29621890	
          0.61666667	          0.64484650	          0.87711132	         -0.23342630	          4.19765043	          1.25248599	         -3.66360617	        -13.35370445	         -3.42365599	         -0.17430878	        -38.05221558	         -0.49262694	          0.00000000	          0.00000000	         22.18478394	          0.98334819	          7.51055431	        -25.63608170	          0.02894387	          0.00000000	          0.00000000	        -20.26325798	         -4.18003702	         13.80294704	          4.81986753	         19.31943819	          0.74883640	          0.31578375	          0.00000000	         -0.15879950	        -71.71549522	        423.91829025	         14.57976561	          0.77222644	          0.00000000	         -0.29427841	          0.00000000	         -0.04850749	          0.00000000	          0.00000000	          0.78079089	          0.00000000	          0.59065115	          0.81508774	         -0.24354871	          0.58970469	          0.79469895	         -0.17950085	          0.58763993	          0.79445559	         -0.29695424	          0.52790576	          0.42020980	         -0.16572820	          0.74885565	          0.46747071	         -0.28421146	          0.23706141	          0.15227766	         -0.16869925	          0.75364220	          0.06529453	         -0.29046026	          0.64484650	          0.87711132	         -0.23342630	          0.63822275	          0.87581825	         -0.13370106	          0.65147024	          0.87840444	         -0.33315155	          0.48442125	          0.89982039	         -0.22388566	          0.48822165	          0.89863831	         -0.27887017	          0.53039414	          0.42181897	         -0.11080808	          0.76710564	          0.47448608	         -0.33508357	          0.53735846	          0.41646069	         -0.22169206	          0.75028330	          0.44743630	         -0.24593005	          0.22863083	          0.16102408	         -0.13216604	          0.76490378	          0.06600049	         -0.32726961	          0.25998002	          0.15089627	         -0.19590352	          0.77480716	          0.07689323	         -0.26196104	          0.54458565	          1.31610477	         -0.21888159	          0.65030193	          1.23841000	         -0.18829322	          0.63036358	          1.23938775	         -0.29473647	          0.62504822	          1.25060284	         -0.24359609	          0.67248499	          1.08174205	         -0.25318390	          0.70007253	          0.57640332	         -0.15570985	          0.79215419	          0.67101115	         -0.24767989	          0.62573951	          0.63395888	         -0.12059021	          0.72869933	          0.68240243	         -0.32488739	          0.60694653	          0.55117935	         -0.12006337	          0.76901340	          0.60415649	         -0.31543329	          0.31094110	          0.24958448	         -0.06246955	          0.74137509	          0.18089229	         -0.39462245	          0.31721056	          0.25146124	         -0.10302863	          0.74879897	          0.18665077	         -0.35244143	          0.29428446	          0.05549308	         -0.14204407	          0.88397175	          0.03927126	         -0.29631981	
